PathFileType	4	(X/Y/Z)	/Users/itak/Documents/Research/Walk-IL/dataset/trc/00585_00009.trc
DataRate	CameraRate	NumFrames	NumMarkers	Units	OrigDataRate	OrigDataStartFrame	OrigNumFrames
100.000000	100.000000	4	74	mm	100.000000	12	99
Frame#	Time	RFHD			RWTS			STRN			CLAV			RWPS			RFRA			RUPA			RAEL			RAOL			RBHD			LBHD			RSHO			C7			LBAK			LWTS			RBAK			LSHO			RKNE			LHIP			LWPS			RTIP			LAEL			LFHD			LUPA			LFRA			LAOL			RMT5			LTOE			RTOE			RMT1			RANK			T10			RHEE			LTHI			L3			RHIP			RPSI			RASI			LMT1			LPSI			LHEE			RTHI			LANK			LTIP			LKNE			RHTS			RHPS			LASI			RIFD			LHTS			LMT5			LHPS			LIFD			*53			*54			*55			*56			*57			*58			*59			*60			*61			*62			*63			*64			*65			*66			*67			*68			*69			*70			*71			*72			*73			
		X1	Y1	Z1	X2	Y2	Z2	X3	Y3	Z3	X4	Y4	Z4	X5	Y5	Z5	X6	Y6	Z6	X7	Y7	Z7	X8	Y8	Z8	X9	Y9	Z9	X10	Y10	Z10	X11	Y11	Z11	X12	Y12	Z12	X13	Y13	Z13	X14	Y14	Z14	X15	Y15	Z15	X16	Y16	Z16	X17	Y17	Z17	X18	Y18	Z18	X19	Y19	Z19	X20	Y20	Z20	X21	Y21	Z21	X22	Y22	Z22	X23	Y23	Z23	X24	Y24	Z24	X25	Y25	Z25	X26	Y26	Z26	X27	Y27	Z27	X28	Y28	Z28	X29	Y29	Z29	X30	Y30	Z30	X31	Y31	Z31	X32	Y32	Z32	X33	Y33	Z33	X34	Y34	Z34	X35	Y35	Z35	X36	Y36	Z36	X37	Y37	Z37	X38	Y38	Z38	X39	Y39	Z39	X40	Y40	Z40	X41	Y41	Z41	X42	Y42	Z42	X43	Y43	Z43	X44	Y44	Z44	X45	Y45	Z45	X46	Y46	Z46	X47	Y47	Z47	X48	Y48	Z48	X49	Y49	Z49	X50	Y50	Z50	X51	Y51	Z51	X52	Y52	Z52	X53	Y53	Z53	X54	Y54	Z54	X55	Y55	Z55	X56	Y56	Z56	X57	Y57	Z57	X58	Y58	Z58	X59	Y59	Z59	X60	Y60	Z60	X61	Y61	Z61	X62	Y62	Z62	X63	Y63	Z63	X64	Y64	Z64	X65	Y65	Z65	X66	Y66	Z66	X67	Y67	Z67	X68	Y68	Z68	X69	Y69	Z69	X70	Y70	Z70	X71	Y71	Z71	X72	Y72	Z72	X73	Y73	Z73	X74	Y74	Z74	

13	0.12	-719.8405151367188	1479.686157226562	-327.9889221191406	-1030.294555664062	934.6119384765625	-336.9559936523438	-820.0477294921875	1101.967041015625	-474.7745361328125	-790.9051513671875	1209.530029296875	-458.9356689453125	-1074.71337890625	883.5900268554688	-287.3444519042969	-1183.470458984375	1044.564575195312	-282.2160034179688	-1010.11962890625	1299.91796875	-327.021728515625	-1193.7685546875	1100.272338867188	-280.013671875	-1250.930541992188	1094.869750976562	-313.6674194335938	-835.9894409179688	1497.020629882812	-405.072998046875	-730.60009765625	1498.835327148438	-532.7503051757812	-936.1973876953125	1330.578491210938	-368.7195739746094	-891.8970947265625	1373.98193359375	-525.3255004882812	-885.8785400390625	1336.517578125	-633.3399658203125	-662.96435546875	1020.6279296875	-509.349853515625	-1039.064453125	1295.231689453125	-508.9931030273438	-753.2669677734375	1321.575805664062	-634.9013061523438	-965.3112182617188	411.8990783691406	-372.8367004394531	-935.7280883789062	823.7327270507812	-754.6925048828125	-617.92626953125	946.5822143554688	-511.7572937011719	-1043.934814453125	322.2619323730469	-438.63232421875	-742.91943359375	1005.642883300781	-722.7943725585938	-631.7073974609375	1484.391845703125	-443.183349609375	-741.1093139648438	1195.615112304688	-715.92041015625	-700.9728393554688	982.260986328125	-664.719970703125	-837.1039428710938	958.7342529296875	-736.6392822265625	-1288.102416992188	163.9344635009766	-551.9891357421875	-1027.545166015625	34.30597686767578	-666.002197265625	-1212.789184570312	92.78812408447266	-557.915283203125	-1221.170532226562	125.1170959472656	-624.2642211914062	-1334.979370117188	258.7301330566406	-627.5452270507812	-1036.441528320312	1142.15283203125	-613.9306640625	-1329.261108398438	285.8374938964844	-698.596923828125	-889.685546875	547.499267578125	-707.5607299804688	-1084.320922851562	1022.689636230469	-629.1176147460938	-1130.644165039062	820.9193115234375	-425.1649169921875	-1167.076416015625	913.5933227539062	-586.7998046875	-1026.769653320312	837.3394165039062	-435.7314758300781	-1108.826904296875	37.33712387084961	-659.20947265625	-1096.4775390625	922.3012084960938	-700.7338256835938	-1285.222412109375	55.1884880065918	-775.918701171875	-1068.98974609375	681.2096557617188	-391.7015686035156	-1199.387817382812	36.59703063964844	-797.3114013671875	-1058.3330078125	201.2188262939453	-738.2649536132812	-881.508544921875	376.1041870117188	-657.3723754882812	-967.5589599609375	895.6656494140625	-296.478759765625	-1019.138061523438	843.9008178710938	-264.7770690917969	-887.7015380859375	832.26953125	-672.9371948242188	-937.1779174804688	828.0858764648438	-326.5842590332031	-602.74560546875	1027.65478515625	-464.1607055664062	-1080.218139648438	28.73735046386719	-764.6338500976562	-586.39794921875	961.8703002929688	-462.4157104492188	-600.0394287109375	1016.089294433594	-371.3134460449219	nan	nan	nan	nan	nan	nan	nan	nan	nan	nan	nan	nan	nan	nan	nan	nan	nan	nan	nan	nan	nan	nan	nan	nan	nan	nan	nan	nan	nan	nan	nan	nan	nan	nan	nan	nan	nan	nan	nan	nan	nan	nan	nan	nan	nan	nan	nan	nan	nan	nan	nan	nan	nan	nan	nan	nan	nan	nan	nan	nan	nan	nan	nan	
14	0.13	-693.1917114257812	1480.8876953125	-307.7518310546875	-1018.980834960938	942.231201171875	-314.517822265625	-794.1441650390625	1102.414306640625	-452.5711975097656	-765.0824584960938	1210.190551757812	-436.1102905273438	-1068.051391601562	893.2139282226562	-266.6332702636719	-1170.567504882812	1058.586303710938	-268.0688781738281	-987.2843017578125	1306.060668945312	-312.3136291503906	-1178.84765625	1114.759887695312	-267.1659545898438	-1234.866333007812	1110.76416015625	-302.8255310058594	-809.2869262695312	1498.014892578125	-385.0943603515625	-703.7359008789062	1499.324462890625	-512.6677856445312	-911.9556884765625	1334.2783203125	-351.6419067382812	-863.8722534179688	1374.332397460938	-507.4736633300781	-854.2144775390625	1336.808349609375	-615.1719360351562	-628.0780029296875	1034.714721679688	-476.7041015625	-1010.572875976562	1295.276123046875	-494.6790771484375	-721.1725463867188	1323.356689453125	-610.2996826171875	-911.6480712890625	427.6589050292969	-334.6688537597656	-907.3328857421875	822.7177124023438	-737.58056640625	-579.9414672851562	962.34814453125	-474.4207763671875	-982.6447143554688	329.2201232910156	-395.7539978027344	-698.6002807617188	1007.965515136719	-692.4217529296875	-604.9682006835938	1485.185546875	-422.9400939941406	-702.5682983398438	1197.13525390625	-688.4453735351562	-657.9844360351562	988.415771484375	-631.7606201171875	-790.5941772460938	956.65185546875	-709.0847778320312	-1211.435791015625	150.2385711669922	-499.8012084960938	-1027.72265625	34.37911224365234	-666.3349609375	-1130.880493164062	86.56786346435547	-503.2262878417969	-1142.710693359375	113.6922073364258	-571.0427856445312	-1265.735229492188	235.7039794921875	-579.952392578125	-1005.553527832031	1141.500610351562	-597.6336669921875	-1262.85205078125	259.5697631835938	-652.53271484375	-873.9390869140625	544.1320190429688	-696.1204223632812	-1054.078125	1022.059509277344	-612.3504638671875	-1099.828857421875	822.4149780273438	-406.3544311523438	-1137.6005859375	912.438720703125	-569.0545043945312	-996.1616821289062	838.690673828125	-417.5445556640625	-1108.965087890625	37.44349670410156	-659.5980834960938	-1066.566162109375	922.0404663085938	-682.4702758789062	-1284.232788085938	60.0842399597168	-777.22314453125	-1032.635620117188	688.7339477539062	-367.8138732910156	-1198.594848632812	39.53242874145508	-798.1304931640625	-1055.195190429688	201.6541442871094	-735.8002319335938	-875.422607421875	371.7958374023438	-651.0186767578125	-960.1644897460938	902.4411010742188	-269.4669189453125	-1015.320129394531	852.5982055664062	-239.0629577636719	-858.133056640625	830.5340576171875	-655.9595336914062	-930.4642333984375	832.4267578125	-296.4075012207031	-569.4674072265625	1046.730224609375	-430.0567626953125	-1080.280395507812	28.35745811462402	-764.7518310546875	-549.88623046875	981.5293579101562	-424.9475402832031	-569.3560791015625	1039.487915039062	-336.31494140625	nan	nan	nan	nan	nan	nan	nan	nan	nan	nan	nan	nan	nan	nan	nan	nan	nan	nan	nan	nan	nan	nan	nan	nan	nan	nan	nan	nan	nan	nan	nan	nan	nan	nan	nan	nan	nan	nan	nan	nan	nan	nan	nan	nan	nan	nan	nan	nan	nan	nan	nan	nan	nan	nan	nan	nan	nan	nan	nan	nan	nan	nan	nan	
15	0.14	-666.3436279296875	1482.384521484375	-286.8061218261719	-1005.443542480469	950.4842529296875	-292.9456176757812	-767.9176635742188	1104.046264648438	-429.8446044921875	-739.128662109375	1212.048706054688	-412.9939270019531	-1058.457885742188	903.4777221679688	-246.6648406982422	-1155.539672851562	1072.200439453125	-254.3119964599609	-964.0827026367188	1312.732299804688	-297.5994262695312	-1162.017211914062	1128.685791015625	-254.7079620361328	-1216.698974609375	1125.749633789062	-292.4185485839844	-782.3118896484375	1499.885131835938	-364.3578796386719	-676.6096801757812	1500.534790039062	-491.8309631347656	-887.6130981445312	1338.716796875	-334.4474487304688	-836.0671997070312	1375.3828125	-489.2521057128906	-822.9631958007812	1337.87060546875	-596.4331665039062	-594.5903930664062	1048.614379882812	-445.7511596679688	-981.9901123046875	1295.909057617188	-479.8302307128906	-689.8543701171875	1326.207275390625	-585.418212890625	-860.4901123046875	445.2857360839844	-297.6699523925781	-877.6356811523438	822.369873046875	-719.7206420898438	-544.1317138671875	977.8916015625	-439.2678833007812	-922.1923217773438	337.4960021972656	-353.4532470703125	-656.086181640625	1011.99365234375	-663.0112915039062	-578.026123046875	1486.160522460938	-402.0083312988281	-665.191162109375	1200.189819335938	-660.8761596679688	-616.9187622070312	995.686767578125	-600.1263427734375	-745.8984375	956.8350830078125	-682.1503295898438	-1131.912231445312	135.7281341552734	-447.7453308105469	-1028.047485351562	34.26745223999023	-666.72412109375	-1046.033935546875	81.25065612792969	-448.6581726074219	-1060.576171875	102.9828948974609	-517.5131225585938	-1193.359619140625	210.6204833984375	-532.1275634765625	-974.2427978515625	1141.43896484375	-580.8369140625	-1192.914428710938	231.3160400390625	-605.9208984375	-858.082763671875	542.0106201171875	-684.6985473632812	-1022.927307128906	1021.982177734375	-595.16259765625	-1068.689453125	825.0419311523438	-387.3215942382812	-1107.240356445312	912.060791015625	-551.1450805664062	-965.1736450195312	840.9363403320312	-398.9517822265625	-1108.966796875	37.77575302124023	-660.1077880859375	-1035.552368164062	922.3318481445312	-663.8579711914062	-1282.2744140625	66.59893798828125	-778.9072265625	-996.8388061523438	697.67626953125	-344.3786010742188	-1197.152709960938	43.39519500732422	-799.22021484375	-1051.716796875	203.5517425537109	-733.8233642578125	-869.655029296875	369.46435546875	-645.1300659179688	-950.3613891601562	910.6007080078125	-243.6556854248047	-1008.034423828125	862.44287109375	-215.0260467529297	-827.5355834960938	829.5938110351562	-638.0197143554688	-921.2291870117188	838.593017578125	-267.4039001464844	-537.5773315429688	1064.842407226562	-397.9902648925781	-1080.186157226562	27.87793731689453	-764.903076171875	-515.7782592773438	1000.141906738281	-389.7271728515625	-540.1451416015625	1061.375854492188	-303.6897888183594	nan	nan	nan	nan	nan	nan	nan	nan	nan	nan	nan	nan	nan	nan	nan	nan	nan	nan	nan	nan	nan	nan	nan	nan	nan	nan	nan	nan	nan	nan	nan	nan	nan	nan	nan	nan	nan	nan	nan	nan	nan	nan	nan	nan	nan	nan	nan	nan	nan	nan	nan	nan	nan	nan	nan	nan	nan	nan	nan	nan	nan	nan	nan	
16	0.15	-639.2506713867188	1484.230346679688	-265.1878356933594	-989.4796142578125	958.7389526367188	-272.1426696777344	-741.1583251953125	1106.75830078125	-406.6284484863281	-712.8803100585938	1215.010986328125	-389.6136169433594	-1045.701904296875	913.7035522460938	-227.2358703613281	-1138.307006835938	1084.811401367188	-240.8769683837891	-940.3713989257812	1319.711791992188	-282.7514038085938	-1143.246948242188	1141.492553710938	-242.5528106689453	-1196.442016601562	1139.283203125	-282.3414001464844	-755.0333862304688	1502.552856445312	-342.9019470214844	-649.2056884765625	1502.414916992188	-470.28271484375	-863.0053100585938	1343.71484375	-317.0626220703125	-808.341796875	1377.073852539062	-470.6212158203125	-792.1361083984375	1339.618408203125	-577.1273193359375	-562.4541625976562	1061.865234375	-416.5747680664062	-953.1808471679688	1297.112182617188	-464.4162292480469	-659.3203735351562	1329.880249023438	-560.499267578125	-812.3909912109375	463.8687438964844	-262.0497436523438	-846.5054321289062	822.7244873046875	-701.0460815429688	-510.4839172363281	992.56787109375	-406.3796997070312	-863.205078125	346.7453308105469	-312.0034790039062	-615.669921875	1017.225219726562	-634.8148803710938	-550.84423828125	1487.373168945312	-380.4207153320312	-629.230712890625	1204.394409179688	-633.5763549804688	-578.0070190429688	1003.530151367188	-570.020751953125	-703.440673828125	958.8502807617188	-656.0327758789062	-1050.069580078125	121.244270324707	-396.1286010742188	-1028.588012695312	33.93776702880859	-667.1856689453125	-959.298828125	77.40209197998047	-394.529541015625	-975.6593627929688	93.7042236328125	-464.064697265625	-1117.872924804688	184.6516571044922	-484.3634338378906	-942.4923706054688	1141.930419921875	-563.494140625	-1119.3955078125	202.3021545410156	-559.1268310546875	-841.7568969726562	541.26806640625	-672.9086303710938	-990.8430786132812	1022.391357421875	-577.4566650390625	-1037.174194335938	828.6511840820312	-368.0721130371094	-1075.981323242188	912.3777465820312	-533.031005859375	-933.7741088867188	843.9329223632812	-379.9245910644531	-1108.810302734375	38.48146438598633	-660.7333374023438	-1003.409240722656	923.1828002929688	-644.8495483398438	-1278.949462890625	75.16490936279297	-780.9319458007812	-961.5905151367188	707.6661376953125	-321.4297180175781	-1194.828369140625	48.51700973510742	-800.5528564453125	-1047.511962890625	207.2015686035156	-732.0736694335938	-863.7806396484375	369.2855529785156	-639.1842041015625	-937.8245239257812	919.4049072265625	-219.017578125	-996.9763793945312	872.677734375	-192.5246734619141	-795.9093627929688	829.42919921875	-618.9973754882812	-909.0706176757812	845.8621826171875	-239.7624969482422	-506.9255065917969	1081.420288085938	-367.9767761230469	-1079.896240234375	27.43733024597168	-765.092529296875	-484.0279846191406	1017.067626953125	-356.7579040527344	-512.0448608398438	1081.251953125	-273.3903198242188	nan	nan	nan	nan	nan	nan	nan	nan	nan	nan	nan	nan	nan	nan	nan	nan	nan	nan	nan	nan	nan	nan	nan	nan	nan	nan	nan	nan	nan	nan	nan	nan	nan	nan	nan	nan	nan	nan	nan	nan	nan	nan	nan	nan	nan	nan	nan	nan	nan	nan	nan	nan	nan	nan	nan	nan	nan	nan	nan	nan	nan	nan	nan	
